<mxfile host="app.diagrams.net" modified="2023-12-29T16:05:48.341Z" agent="Mozilla/5.0 (Windows NT 10.0; Win64; x64) AppleWebKit/537.36 (KHTML, like Gecko) Chrome/120.0.0.0 Safari/537.36" etag="j9adu2kc7z_ooOB4-BUT" version="22.1.16" type="device">
  <diagram name="Page-1" id="0783ab3e-0a74-02c8-0abd-f7b4e66b4bec">
    <mxGraphModel dx="990" dy="580" grid="1" gridSize="10" guides="1" tooltips="1" connect="1" arrows="1" fold="1" page="1" pageScale="1" pageWidth="850" pageHeight="1100" background="none" math="0" shadow="0">
      <root>
        <mxCell id="0" />
        <mxCell id="1" parent="0" />
        <mxCell id="fvYRFao9qfj0C6BONdJA-1" value="регистрация пользователя" style="rounded=1;whiteSpace=wrap;html=1;" vertex="1" parent="1">
          <mxGeometry x="130" y="110" width="120" height="60" as="geometry" />
        </mxCell>
        <mxCell id="fvYRFao9qfj0C6BONdJA-2" value="" style="ellipse;html=1;shape=startState;fillColor=#000000;strokeColor=#ff0000;" vertex="1" parent="1">
          <mxGeometry x="175" y="20" width="30" height="30" as="geometry" />
        </mxCell>
        <mxCell id="fvYRFao9qfj0C6BONdJA-3" value="" style="edgeStyle=orthogonalEdgeStyle;html=1;verticalAlign=bottom;endArrow=open;endSize=8;strokeColor=#ff0000;rounded=0;entryX=0.5;entryY=0;entryDx=0;entryDy=0;" edge="1" source="fvYRFao9qfj0C6BONdJA-2" parent="1" target="fvYRFao9qfj0C6BONdJA-1">
          <mxGeometry relative="1" as="geometry">
            <mxPoint x="185" y="110" as="targetPoint" />
            <Array as="points">
              <mxPoint x="190" y="60" />
              <mxPoint x="190" y="60" />
            </Array>
          </mxGeometry>
        </mxCell>
        <mxCell id="fvYRFao9qfj0C6BONdJA-6" style="edgeStyle=orthogonalEdgeStyle;rounded=0;orthogonalLoop=1;jettySize=auto;html=1;exitX=0;exitY=0.5;exitDx=0;exitDy=0;entryX=0;entryY=0.5;entryDx=0;entryDy=0;" edge="1" parent="1" source="fvYRFao9qfj0C6BONdJA-4" target="fvYRFao9qfj0C6BONdJA-1">
          <mxGeometry relative="1" as="geometry">
            <Array as="points">
              <mxPoint x="60" y="250" />
              <mxPoint x="60" y="140" />
            </Array>
          </mxGeometry>
        </mxCell>
        <mxCell id="fvYRFao9qfj0C6BONdJA-9" style="edgeStyle=orthogonalEdgeStyle;rounded=0;orthogonalLoop=1;jettySize=auto;html=1;exitX=1;exitY=0.5;exitDx=0;exitDy=0;entryX=0.5;entryY=0;entryDx=0;entryDy=0;" edge="1" parent="1" source="fvYRFao9qfj0C6BONdJA-4" target="fvYRFao9qfj0C6BONdJA-8">
          <mxGeometry relative="1" as="geometry" />
        </mxCell>
        <mxCell id="fvYRFao9qfj0C6BONdJA-4" value="проверка на наличие пользователя&amp;nbsp;" style="rhombus;whiteSpace=wrap;html=1;" vertex="1" parent="1">
          <mxGeometry x="110" y="210" width="160" height="80" as="geometry" />
        </mxCell>
        <mxCell id="fvYRFao9qfj0C6BONdJA-5" value="" style="endArrow=classic;html=1;rounded=0;exitX=0.5;exitY=1;exitDx=0;exitDy=0;entryX=0.5;entryY=0;entryDx=0;entryDy=0;" edge="1" parent="1" source="fvYRFao9qfj0C6BONdJA-1" target="fvYRFao9qfj0C6BONdJA-4">
          <mxGeometry width="50" height="50" relative="1" as="geometry">
            <mxPoint x="180" y="160" as="sourcePoint" />
            <mxPoint x="230" y="110" as="targetPoint" />
          </mxGeometry>
        </mxCell>
        <mxCell id="fvYRFao9qfj0C6BONdJA-7" value="Пользователя нет" style="text;html=1;strokeColor=none;fillColor=none;align=center;verticalAlign=middle;whiteSpace=wrap;rounded=0;" vertex="1" parent="1">
          <mxGeometry x="70" y="220" width="60" height="20" as="geometry" />
        </mxCell>
        <mxCell id="fvYRFao9qfj0C6BONdJA-13" style="edgeStyle=orthogonalEdgeStyle;rounded=0;orthogonalLoop=1;jettySize=auto;html=1;exitX=0.5;exitY=1;exitDx=0;exitDy=0;entryX=0.5;entryY=0;entryDx=0;entryDy=0;" edge="1" parent="1" source="fvYRFao9qfj0C6BONdJA-8" target="fvYRFao9qfj0C6BONdJA-11">
          <mxGeometry relative="1" as="geometry" />
        </mxCell>
        <mxCell id="fvYRFao9qfj0C6BONdJA-8" value="Заполнение данных клиента" style="rounded=1;whiteSpace=wrap;html=1;" vertex="1" parent="1">
          <mxGeometry x="290" y="310" width="120" height="60" as="geometry" />
        </mxCell>
        <mxCell id="fvYRFao9qfj0C6BONdJA-15" style="edgeStyle=orthogonalEdgeStyle;rounded=0;orthogonalLoop=1;jettySize=auto;html=1;exitX=0.5;exitY=1;exitDx=0;exitDy=0;entryX=0.5;entryY=0;entryDx=0;entryDy=0;" edge="1" parent="1" source="fvYRFao9qfj0C6BONdJA-11" target="fvYRFao9qfj0C6BONdJA-14">
          <mxGeometry relative="1" as="geometry" />
        </mxCell>
        <mxCell id="fvYRFao9qfj0C6BONdJA-11" value="Заполнение данных тура" style="rounded=1;whiteSpace=wrap;html=1;" vertex="1" parent="1">
          <mxGeometry x="290" y="410" width="120" height="60" as="geometry" />
        </mxCell>
        <mxCell id="fvYRFao9qfj0C6BONdJA-16" style="edgeStyle=orthogonalEdgeStyle;rounded=0;orthogonalLoop=1;jettySize=auto;html=1;exitX=0;exitY=0.5;exitDx=0;exitDy=0;entryX=0;entryY=0.5;entryDx=0;entryDy=0;" edge="1" parent="1" source="fvYRFao9qfj0C6BONdJA-14" target="fvYRFao9qfj0C6BONdJA-11">
          <mxGeometry relative="1" as="geometry">
            <Array as="points">
              <mxPoint x="230" y="530" />
              <mxPoint x="230" y="440" />
            </Array>
          </mxGeometry>
        </mxCell>
        <mxCell id="fvYRFao9qfj0C6BONdJA-21" style="edgeStyle=orthogonalEdgeStyle;rounded=0;orthogonalLoop=1;jettySize=auto;html=1;exitX=1;exitY=0.5;exitDx=0;exitDy=0;entryX=0.5;entryY=0;entryDx=0;entryDy=0;" edge="1" parent="1" source="fvYRFao9qfj0C6BONdJA-14" target="fvYRFao9qfj0C6BONdJA-19">
          <mxGeometry relative="1" as="geometry" />
        </mxCell>
        <mxCell id="fvYRFao9qfj0C6BONdJA-14" value="Заполнили всю информацию о турах" style="rhombus;whiteSpace=wrap;html=1;" vertex="1" parent="1">
          <mxGeometry x="270" y="490" width="160" height="80" as="geometry" />
        </mxCell>
        <mxCell id="fvYRFao9qfj0C6BONdJA-17" value="нет" style="text;html=1;strokeColor=none;fillColor=none;align=center;verticalAlign=middle;whiteSpace=wrap;rounded=0;" vertex="1" parent="1">
          <mxGeometry x="220" y="500" width="60" height="30" as="geometry" />
        </mxCell>
        <mxCell id="fvYRFao9qfj0C6BONdJA-22" style="edgeStyle=orthogonalEdgeStyle;rounded=0;orthogonalLoop=1;jettySize=auto;html=1;exitX=0;exitY=0.5;exitDx=0;exitDy=0;entryX=0;entryY=0.5;entryDx=0;entryDy=0;" edge="1" parent="1" source="fvYRFao9qfj0C6BONdJA-19" target="fvYRFao9qfj0C6BONdJA-1">
          <mxGeometry relative="1" as="geometry">
            <Array as="points">
              <mxPoint x="60" y="620" />
              <mxPoint x="60" y="140" />
            </Array>
          </mxGeometry>
        </mxCell>
        <mxCell id="fvYRFao9qfj0C6BONdJA-19" value="Заполнили все данные о клиентах и турах" style="rhombus;whiteSpace=wrap;html=1;" vertex="1" parent="1">
          <mxGeometry x="410" y="580" width="180" height="80" as="geometry" />
        </mxCell>
        <mxCell id="fvYRFao9qfj0C6BONdJA-23" value="нет" style="text;html=1;strokeColor=none;fillColor=none;align=center;verticalAlign=middle;whiteSpace=wrap;rounded=0;" vertex="1" parent="1">
          <mxGeometry x="365" y="590" width="60" height="30" as="geometry" />
        </mxCell>
        <mxCell id="fvYRFao9qfj0C6BONdJA-24" value="да" style="text;html=1;strokeColor=none;fillColor=none;align=center;verticalAlign=middle;whiteSpace=wrap;rounded=0;" vertex="1" parent="1">
          <mxGeometry x="420" y="500" width="60" height="30" as="geometry" />
        </mxCell>
        <mxCell id="fvYRFao9qfj0C6BONdJA-27" style="edgeStyle=orthogonalEdgeStyle;rounded=0;orthogonalLoop=1;jettySize=auto;html=1;exitX=0;exitY=1;exitDx=0;exitDy=0;entryX=0.5;entryY=0;entryDx=0;entryDy=0;" edge="1" parent="1" source="fvYRFao9qfj0C6BONdJA-25" target="fvYRFao9qfj0C6BONdJA-26">
          <mxGeometry relative="1" as="geometry" />
        </mxCell>
        <mxCell id="fvYRFao9qfj0C6BONdJA-25" value="да" style="text;html=1;strokeColor=none;fillColor=none;align=center;verticalAlign=middle;whiteSpace=wrap;rounded=0;" vertex="1" parent="1">
          <mxGeometry x="590" y="590" width="60" height="30" as="geometry" />
        </mxCell>
        <mxCell id="fvYRFao9qfj0C6BONdJA-26" value="" style="ellipse;html=1;shape=endState;fillColor=#000000;strokeColor=#ff0000;" vertex="1" parent="1">
          <mxGeometry x="485" y="760" width="30" height="30" as="geometry" />
        </mxCell>
      </root>
    </mxGraphModel>
  </diagram>
</mxfile>
